<svg xmlns="http://www.w3.org/2000/svg" viewBox="0 0 192 192" fill="none">
  <rect width="192" height="192" rx="44" fill="#08101A"/>
  <rect x="18" y="18" width="156" height="156" rx="36" fill="url(#g)"/>
  <path d="M54 75.5C54 62.5213 64.5213 52 77.5 52H115.5C128.479 52 139 62.5213 139 75.5V116.5C139 129.479 128.479 140 115.5 140H92.803L73.9643 155.298C71.8935 156.98 68.75 155.506 68.75 152.837V140H77.5C64.5213 140 54 129.479 54 116.5V75.5Z" fill="#08101A"/>
  <path d="M78 83H115M78 97H115M78 111H101" stroke="#EFF5FF" stroke-width="10" stroke-linecap="round"/>
  <defs>
    <linearGradient id="g" x1="28" y1="26" x2="163" y2="167" gradientUnits="userSpaceOnUse">
      <stop stop-color="#2DD4BF"/>
      <stop offset="0.52" stop-color="#67E8F9"/>
      <stop offset="1" stop-color="#D8B774"/>
    </linearGradient>
  </defs>
</svg>
